<mxfile host="app.diagrams.net" modified="2023-05-15T14:17:20.941Z" agent="Mozilla/5.0 (Windows NT 10.0; Win64; x64) AppleWebKit/537.36 (KHTML, like Gecko) Chrome/113.0.0.0 Safari/537.36" etag="Y7J2VHyKu2jX-t8rHPWF" version="21.3.0" type="device">
  <diagram id="R2lEEEUBdFMjLlhIrx00" name="Page-1">
    <mxGraphModel dx="1900" dy="581" grid="1" gridSize="10" guides="1" tooltips="1" connect="1" arrows="1" fold="1" page="1" pageScale="1" pageWidth="850" pageHeight="1100" math="0" shadow="0" extFonts="Permanent Marker^https://fonts.googleapis.com/css?family=Permanent+Marker">
      <root>
        <mxCell id="0" />
        <mxCell id="1" parent="0" />
        <mxCell id="5wxTeIpvQStzypfVFlda-1" value="Employee" style="rounded=1;arcSize=10;whiteSpace=wrap;html=1;align=center;" parent="1" vertex="1">
          <mxGeometry x="490" y="130" width="100" height="40" as="geometry" />
        </mxCell>
        <mxCell id="5wxTeIpvQStzypfVFlda-2" value="emp_no" style="ellipse;whiteSpace=wrap;html=1;align=center;fontStyle=4;" parent="1" vertex="1">
          <mxGeometry x="680" y="20" width="100" height="40" as="geometry" />
        </mxCell>
        <mxCell id="5wxTeIpvQStzypfVFlda-3" value="name" style="ellipse;whiteSpace=wrap;html=1;align=center;" parent="1" vertex="1">
          <mxGeometry x="680" y="70" width="100" height="40" as="geometry" />
        </mxCell>
        <mxCell id="5wxTeIpvQStzypfVFlda-4" value="gender" style="ellipse;whiteSpace=wrap;html=1;align=center;" parent="1" vertex="1">
          <mxGeometry x="680" y="120" width="100" height="40" as="geometry" />
        </mxCell>
        <mxCell id="5wxTeIpvQStzypfVFlda-6" value="address" style="ellipse;whiteSpace=wrap;html=1;align=center;" parent="1" vertex="1">
          <mxGeometry x="680" y="170" width="100" height="40" as="geometry" />
        </mxCell>
        <mxCell id="5wxTeIpvQStzypfVFlda-7" value="phone" style="ellipse;shape=doubleEllipse;margin=3;whiteSpace=wrap;html=1;align=center;" parent="1" vertex="1">
          <mxGeometry x="680" y="230" width="100" height="40" as="geometry" />
        </mxCell>
        <mxCell id="5wxTeIpvQStzypfVFlda-11" value="" style="endArrow=none;html=1;rounded=0;exitX=1;exitY=0.5;exitDx=0;exitDy=0;entryX=0;entryY=0.5;entryDx=0;entryDy=0;" parent="1" source="5wxTeIpvQStzypfVFlda-1" target="5wxTeIpvQStzypfVFlda-2" edge="1">
          <mxGeometry width="50" height="50" relative="1" as="geometry">
            <mxPoint x="790" y="310" as="sourcePoint" />
            <mxPoint x="840" y="260" as="targetPoint" />
          </mxGeometry>
        </mxCell>
        <mxCell id="5wxTeIpvQStzypfVFlda-12" value="" style="endArrow=none;html=1;rounded=0;exitX=1;exitY=0.5;exitDx=0;exitDy=0;entryX=0;entryY=0.5;entryDx=0;entryDy=0;" parent="1" source="5wxTeIpvQStzypfVFlda-1" target="5wxTeIpvQStzypfVFlda-3" edge="1">
          <mxGeometry width="50" height="50" relative="1" as="geometry">
            <mxPoint x="790" y="310" as="sourcePoint" />
            <mxPoint x="840" y="260" as="targetPoint" />
          </mxGeometry>
        </mxCell>
        <mxCell id="5wxTeIpvQStzypfVFlda-13" value="" style="endArrow=none;html=1;rounded=0;exitX=1;exitY=0.5;exitDx=0;exitDy=0;entryX=0;entryY=0.5;entryDx=0;entryDy=0;" parent="1" source="5wxTeIpvQStzypfVFlda-1" target="5wxTeIpvQStzypfVFlda-4" edge="1">
          <mxGeometry width="50" height="50" relative="1" as="geometry">
            <mxPoint x="790" y="310" as="sourcePoint" />
            <mxPoint x="840" y="260" as="targetPoint" />
          </mxGeometry>
        </mxCell>
        <mxCell id="5wxTeIpvQStzypfVFlda-14" value="" style="endArrow=none;html=1;rounded=0;exitX=1;exitY=0.5;exitDx=0;exitDy=0;entryX=0;entryY=0.5;entryDx=0;entryDy=0;" parent="1" source="5wxTeIpvQStzypfVFlda-1" target="5wxTeIpvQStzypfVFlda-6" edge="1">
          <mxGeometry width="50" height="50" relative="1" as="geometry">
            <mxPoint x="790" y="310" as="sourcePoint" />
            <mxPoint x="840" y="260" as="targetPoint" />
          </mxGeometry>
        </mxCell>
        <mxCell id="5wxTeIpvQStzypfVFlda-15" value="" style="endArrow=none;html=1;rounded=0;exitX=1;exitY=0.5;exitDx=0;exitDy=0;entryX=0;entryY=0.5;entryDx=0;entryDy=0;" parent="1" source="5wxTeIpvQStzypfVFlda-1" target="5wxTeIpvQStzypfVFlda-7" edge="1">
          <mxGeometry width="50" height="50" relative="1" as="geometry">
            <mxPoint x="790" y="310" as="sourcePoint" />
            <mxPoint x="840" y="260" as="targetPoint" />
          </mxGeometry>
        </mxCell>
        <mxCell id="5wxTeIpvQStzypfVFlda-16" value="EmployeeType" style="rounded=1;arcSize=10;whiteSpace=wrap;html=1;align=center;" parent="1" vertex="1">
          <mxGeometry x="180" y="130" width="100" height="40" as="geometry" />
        </mxCell>
        <mxCell id="5wxTeIpvQStzypfVFlda-18" value="id" style="ellipse;whiteSpace=wrap;html=1;align=center;fontStyle=4;" parent="1" vertex="1">
          <mxGeometry x="10" y="100" width="100" height="40" as="geometry" />
        </mxCell>
        <mxCell id="5wxTeIpvQStzypfVFlda-19" value="type" style="ellipse;whiteSpace=wrap;html=1;align=center;" parent="1" vertex="1">
          <mxGeometry x="10" y="160" width="100" height="40" as="geometry" />
        </mxCell>
        <mxCell id="5wxTeIpvQStzypfVFlda-20" value="" style="endArrow=none;html=1;rounded=0;exitX=0;exitY=0.5;exitDx=0;exitDy=0;entryX=1;entryY=0.5;entryDx=0;entryDy=0;" parent="1" source="5wxTeIpvQStzypfVFlda-16" target="5wxTeIpvQStzypfVFlda-18" edge="1">
          <mxGeometry width="50" height="50" relative="1" as="geometry">
            <mxPoint x="480" y="100" as="sourcePoint" />
            <mxPoint x="530" y="50" as="targetPoint" />
          </mxGeometry>
        </mxCell>
        <mxCell id="5wxTeIpvQStzypfVFlda-21" value="" style="endArrow=none;html=1;rounded=0;exitX=0;exitY=0.5;exitDx=0;exitDy=0;entryX=1;entryY=0.5;entryDx=0;entryDy=0;" parent="1" source="5wxTeIpvQStzypfVFlda-16" target="5wxTeIpvQStzypfVFlda-19" edge="1">
          <mxGeometry width="50" height="50" relative="1" as="geometry">
            <mxPoint x="480" y="100" as="sourcePoint" />
            <mxPoint x="530" y="50" as="targetPoint" />
          </mxGeometry>
        </mxCell>
        <mxCell id="5wxTeIpvQStzypfVFlda-30" style="edgeStyle=orthogonalEdgeStyle;rounded=0;orthogonalLoop=1;jettySize=auto;html=1;exitX=0.5;exitY=1;exitDx=0;exitDy=0;entryX=0.5;entryY=0;entryDx=0;entryDy=0;endArrow=none;endFill=0;" parent="1" source="5wxTeIpvQStzypfVFlda-22" target="5wxTeIpvQStzypfVFlda-26" edge="1">
          <mxGeometry relative="1" as="geometry" />
        </mxCell>
        <mxCell id="5wxTeIpvQStzypfVFlda-33" style="edgeStyle=orthogonalEdgeStyle;rounded=0;orthogonalLoop=1;jettySize=auto;html=1;entryX=0.5;entryY=0;entryDx=0;entryDy=0;endArrow=none;endFill=0;exitX=0.5;exitY=1;exitDx=0;exitDy=0;" parent="1" source="5wxTeIpvQStzypfVFlda-52" target="5wxTeIpvQStzypfVFlda-31" edge="1">
          <mxGeometry relative="1" as="geometry">
            <mxPoint x="670" y="330" as="sourcePoint" />
          </mxGeometry>
        </mxCell>
        <mxCell id="5wxTeIpvQStzypfVFlda-50" style="edgeStyle=orthogonalEdgeStyle;rounded=0;orthogonalLoop=1;jettySize=auto;html=1;exitX=0.5;exitY=0;exitDx=0;exitDy=0;entryX=0.5;entryY=1;entryDx=0;entryDy=0;" parent="1" source="5wxTeIpvQStzypfVFlda-22" target="5wxTeIpvQStzypfVFlda-1" edge="1">
          <mxGeometry relative="1" as="geometry" />
        </mxCell>
        <mxCell id="5wxTeIpvQStzypfVFlda-22" value="is a" style="shape=rhombus;double=1;perimeter=rhombusPerimeter;whiteSpace=wrap;html=1;align=center;" parent="1" vertex="1">
          <mxGeometry x="370" y="240" width="120" height="60" as="geometry" />
        </mxCell>
        <mxCell id="5wxTeIpvQStzypfVFlda-26" value="Physician" style="rounded=1;arcSize=10;whiteSpace=wrap;html=1;align=center;" parent="1" vertex="1">
          <mxGeometry x="380" y="450" width="100" height="40" as="geometry" />
        </mxCell>
        <mxCell id="5wxTeIpvQStzypfVFlda-31" value="Nurse" style="rounded=1;arcSize=10;whiteSpace=wrap;html=1;align=center;" parent="1" vertex="1">
          <mxGeometry x="540" y="450" width="100" height="40" as="geometry" />
        </mxCell>
        <mxCell id="5wxTeIpvQStzypfVFlda-34" value="specialty" style="ellipse;whiteSpace=wrap;html=1;align=center;" parent="1" vertex="1">
          <mxGeometry x="300" y="320" width="100" height="40" as="geometry" />
        </mxCell>
        <mxCell id="5wxTeIpvQStzypfVFlda-35" value="" style="endArrow=none;html=1;rounded=0;exitX=0.5;exitY=1;exitDx=0;exitDy=0;entryX=0.25;entryY=0;entryDx=0;entryDy=0;" parent="1" source="5wxTeIpvQStzypfVFlda-34" target="5wxTeIpvQStzypfVFlda-26" edge="1">
          <mxGeometry width="50" height="50" relative="1" as="geometry">
            <mxPoint x="400" y="370" as="sourcePoint" />
            <mxPoint x="450" y="320" as="targetPoint" />
          </mxGeometry>
        </mxCell>
        <mxCell id="5wxTeIpvQStzypfVFlda-36" value="has" style="shape=rhombus;perimeter=rhombusPerimeter;whiteSpace=wrap;html=1;align=center;" parent="1" vertex="1">
          <mxGeometry x="320" y="120" width="120" height="60" as="geometry" />
        </mxCell>
        <mxCell id="5wxTeIpvQStzypfVFlda-37" value="" style="fontSize=12;html=1;endArrow=ERmandOne;rounded=0;entryX=1;entryY=0.5;entryDx=0;entryDy=0;exitX=0;exitY=0.5;exitDx=0;exitDy=0;" parent="1" source="5wxTeIpvQStzypfVFlda-36" target="5wxTeIpvQStzypfVFlda-16" edge="1">
          <mxGeometry width="100" height="100" relative="1" as="geometry">
            <mxPoint x="370" y="390" as="sourcePoint" />
            <mxPoint x="470" y="290" as="targetPoint" />
          </mxGeometry>
        </mxCell>
        <mxCell id="5wxTeIpvQStzypfVFlda-38" value="" style="edgeStyle=entityRelationEdgeStyle;fontSize=12;html=1;endArrow=ERoneToMany;rounded=0;entryX=0;entryY=0.5;entryDx=0;entryDy=0;exitX=1;exitY=0.5;exitDx=0;exitDy=0;" parent="1" source="5wxTeIpvQStzypfVFlda-36" target="5wxTeIpvQStzypfVFlda-1" edge="1">
          <mxGeometry width="100" height="100" relative="1" as="geometry">
            <mxPoint x="370" y="390" as="sourcePoint" />
            <mxPoint x="470" y="290" as="targetPoint" />
          </mxGeometry>
        </mxCell>
        <mxCell id="5wxTeIpvQStzypfVFlda-42" value="hp_number" style="ellipse;whiteSpace=wrap;html=1;align=center;" parent="1" vertex="1">
          <mxGeometry x="240" y="670" width="100" height="40" as="geometry" />
        </mxCell>
        <mxCell id="5wxTeIpvQStzypfVFlda-43" value="" style="endArrow=none;html=1;rounded=0;exitX=1;exitY=0.5;exitDx=0;exitDy=0;entryX=0;entryY=0.5;entryDx=0;entryDy=0;" parent="1" source="5wxTeIpvQStzypfVFlda-42" target="5wxTeIpvQStzypfVFlda-54" edge="1">
          <mxGeometry width="50" height="50" relative="1" as="geometry">
            <mxPoint x="370" y="770" as="sourcePoint" />
            <mxPoint x="370" y="680" as="targetPoint" />
          </mxGeometry>
        </mxCell>
        <mxCell id="5wxTeIpvQStzypfVFlda-44" value="Patient" style="rounded=1;arcSize=10;whiteSpace=wrap;html=1;align=center;" parent="1" vertex="1">
          <mxGeometry x="-190" y="450" width="100" height="40" as="geometry" />
        </mxCell>
        <mxCell id="5wxTeIpvQStzypfVFlda-45" value="has" style="shape=rhombus;perimeter=rhombusPerimeter;whiteSpace=wrap;html=1;align=center;" parent="1" vertex="1">
          <mxGeometry x="190" y="440" width="120" height="60" as="geometry" />
        </mxCell>
        <mxCell id="5wxTeIpvQStzypfVFlda-46" value="" style="fontSize=12;html=1;endArrow=ERoneToMany;rounded=0;entryX=1;entryY=0.5;entryDx=0;entryDy=0;exitX=0;exitY=0.5;exitDx=0;exitDy=0;" parent="1" source="5wxTeIpvQStzypfVFlda-45" target="5wxTeIpvQStzypfVFlda-44" edge="1">
          <mxGeometry width="100" height="100" relative="1" as="geometry">
            <mxPoint x="180" y="530" as="sourcePoint" />
            <mxPoint x="470" y="390" as="targetPoint" />
          </mxGeometry>
        </mxCell>
        <mxCell id="5wxTeIpvQStzypfVFlda-47" value="" style="edgeStyle=entityRelationEdgeStyle;fontSize=12;html=1;endArrow=ERone;endFill=1;rounded=0;exitX=1;exitY=0.5;exitDx=0;exitDy=0;entryX=0;entryY=0.5;entryDx=0;entryDy=0;" parent="1" source="5wxTeIpvQStzypfVFlda-45" target="5wxTeIpvQStzypfVFlda-26" edge="1">
          <mxGeometry width="100" height="100" relative="1" as="geometry">
            <mxPoint x="370" y="490" as="sourcePoint" />
            <mxPoint x="470" y="390" as="targetPoint" />
          </mxGeometry>
        </mxCell>
        <mxCell id="5wxTeIpvQStzypfVFlda-53" style="edgeStyle=orthogonalEdgeStyle;rounded=0;orthogonalLoop=1;jettySize=auto;html=1;exitX=0.5;exitY=0;exitDx=0;exitDy=0;entryX=0.75;entryY=1;entryDx=0;entryDy=0;" parent="1" source="5wxTeIpvQStzypfVFlda-52" target="5wxTeIpvQStzypfVFlda-1" edge="1">
          <mxGeometry relative="1" as="geometry" />
        </mxCell>
        <mxCell id="5wxTeIpvQStzypfVFlda-52" value="is a" style="shape=rhombus;double=1;perimeter=rhombusPerimeter;whiteSpace=wrap;html=1;align=center;" parent="1" vertex="1">
          <mxGeometry x="550" y="290" width="120" height="60" as="geometry" />
        </mxCell>
        <mxCell id="5wxTeIpvQStzypfVFlda-54" value="HeadPhysician" style="rounded=1;arcSize=10;whiteSpace=wrap;html=1;align=center;" parent="1" vertex="1">
          <mxGeometry x="380" y="670" width="100" height="40" as="geometry" />
        </mxCell>
        <mxCell id="5wxTeIpvQStzypfVFlda-58" value="monitor" style="shape=rhombus;perimeter=rhombusPerimeter;whiteSpace=wrap;html=1;align=center;" parent="1" vertex="1">
          <mxGeometry x="370" y="550" width="120" height="60" as="geometry" />
        </mxCell>
        <mxCell id="5wxTeIpvQStzypfVFlda-59" value="" style="fontSize=12;html=1;endArrow=ERoneToMany;rounded=0;entryX=0.5;entryY=1;entryDx=0;entryDy=0;exitX=0.5;exitY=0;exitDx=0;exitDy=0;" parent="1" source="5wxTeIpvQStzypfVFlda-58" target="5wxTeIpvQStzypfVFlda-26" edge="1">
          <mxGeometry width="100" height="100" relative="1" as="geometry">
            <mxPoint x="370" y="590" as="sourcePoint" />
            <mxPoint x="470" y="490" as="targetPoint" />
          </mxGeometry>
        </mxCell>
        <mxCell id="5wxTeIpvQStzypfVFlda-60" value="" style="fontSize=12;html=1;endArrow=ERone;endFill=1;rounded=0;exitX=0.5;exitY=1;exitDx=0;exitDy=0;entryX=0.5;entryY=0;entryDx=0;entryDy=0;" parent="1" source="5wxTeIpvQStzypfVFlda-58" target="5wxTeIpvQStzypfVFlda-54" edge="1">
          <mxGeometry width="100" height="100" relative="1" as="geometry">
            <mxPoint x="370" y="590" as="sourcePoint" />
            <mxPoint x="470" y="490" as="targetPoint" />
          </mxGeometry>
        </mxCell>
        <mxCell id="5wxTeIpvQStzypfVFlda-61" value="grade" style="ellipse;whiteSpace=wrap;html=1;align=center;" parent="1" vertex="1">
          <mxGeometry x="720" y="370" width="100" height="40" as="geometry" />
        </mxCell>
        <mxCell id="5wxTeIpvQStzypfVFlda-62" value="years_of_experience" style="ellipse;whiteSpace=wrap;html=1;align=center;" parent="1" vertex="1">
          <mxGeometry x="700" y="440" width="140" height="40" as="geometry" />
        </mxCell>
        <mxCell id="5wxTeIpvQStzypfVFlda-63" value="surgery_skill_type" style="ellipse;whiteSpace=wrap;html=1;align=center;" parent="1" vertex="1">
          <mxGeometry x="700" y="510" width="140" height="40" as="geometry" />
        </mxCell>
        <mxCell id="5wxTeIpvQStzypfVFlda-65" value="" style="endArrow=none;html=1;rounded=0;entryX=0;entryY=0.5;entryDx=0;entryDy=0;exitX=1;exitY=0.5;exitDx=0;exitDy=0;" parent="1" source="5wxTeIpvQStzypfVFlda-31" target="5wxTeIpvQStzypfVFlda-63" edge="1">
          <mxGeometry width="50" height="50" relative="1" as="geometry">
            <mxPoint x="400" y="590" as="sourcePoint" />
            <mxPoint x="450" y="540" as="targetPoint" />
          </mxGeometry>
        </mxCell>
        <mxCell id="5wxTeIpvQStzypfVFlda-66" value="" style="endArrow=none;html=1;rounded=0;entryX=0;entryY=0.5;entryDx=0;entryDy=0;exitX=1;exitY=0.5;exitDx=0;exitDy=0;" parent="1" source="5wxTeIpvQStzypfVFlda-31" target="5wxTeIpvQStzypfVFlda-62" edge="1">
          <mxGeometry width="50" height="50" relative="1" as="geometry">
            <mxPoint x="400" y="590" as="sourcePoint" />
            <mxPoint x="450" y="540" as="targetPoint" />
          </mxGeometry>
        </mxCell>
        <mxCell id="5wxTeIpvQStzypfVFlda-67" value="" style="endArrow=none;html=1;rounded=0;entryX=0;entryY=0.5;entryDx=0;entryDy=0;exitX=1;exitY=0.5;exitDx=0;exitDy=0;" parent="1" source="5wxTeIpvQStzypfVFlda-31" target="5wxTeIpvQStzypfVFlda-61" edge="1">
          <mxGeometry width="50" height="50" relative="1" as="geometry">
            <mxPoint x="400" y="590" as="sourcePoint" />
            <mxPoint x="450" y="540" as="targetPoint" />
          </mxGeometry>
        </mxCell>
        <mxCell id="5wxTeIpvQStzypfVFlda-68" value="has" style="shape=rhombus;perimeter=rhombusPerimeter;whiteSpace=wrap;html=1;align=center;" parent="1" vertex="1">
          <mxGeometry x="390" y="1220" width="120" height="60" as="geometry" />
        </mxCell>
        <mxCell id="5wxTeIpvQStzypfVFlda-69" value="" style="fontSize=12;html=1;endArrow=ERoneToMany;rounded=0;entryX=0.25;entryY=1;entryDx=0;entryDy=0;exitX=0;exitY=0.5;exitDx=0;exitDy=0;edgeStyle=orthogonalEdgeStyle;" parent="1" source="5wxTeIpvQStzypfVFlda-68" target="5wxTeIpvQStzypfVFlda-44" edge="1">
          <mxGeometry width="100" height="100" relative="1" as="geometry">
            <mxPoint x="420" y="860" as="sourcePoint" />
            <mxPoint x="370" y="800" as="targetPoint" />
          </mxGeometry>
        </mxCell>
        <mxCell id="5wxTeIpvQStzypfVFlda-70" value="" style="edgeStyle=orthogonalEdgeStyle;fontSize=12;html=1;endArrow=ERone;endFill=1;rounded=0;exitX=1;exitY=0.5;exitDx=0;exitDy=0;entryX=0.5;entryY=1;entryDx=0;entryDy=0;" parent="1" source="5wxTeIpvQStzypfVFlda-68" target="5wxTeIpvQStzypfVFlda-31" edge="1">
          <mxGeometry width="100" height="100" relative="1" as="geometry">
            <mxPoint x="610" y="820" as="sourcePoint" />
            <mxPoint x="620" y="800" as="targetPoint" />
          </mxGeometry>
        </mxCell>
        <mxCell id="5wxTeIpvQStzypfVFlda-72" value="id_no" style="ellipse;whiteSpace=wrap;html=1;align=center;fontStyle=4;" parent="1" vertex="1">
          <mxGeometry x="-370" y="300" width="100" height="40" as="geometry" />
        </mxCell>
        <mxCell id="5wxTeIpvQStzypfVFlda-73" value="name" style="ellipse;whiteSpace=wrap;html=1;align=center;" parent="1" vertex="1">
          <mxGeometry x="-370" y="350" width="100" height="40" as="geometry" />
        </mxCell>
        <mxCell id="5wxTeIpvQStzypfVFlda-74" value="age" style="ellipse;whiteSpace=wrap;html=1;align=center;" parent="1" vertex="1">
          <mxGeometry x="-370" y="400" width="100" height="40" as="geometry" />
        </mxCell>
        <mxCell id="5wxTeIpvQStzypfVFlda-75" value="address" style="ellipse;whiteSpace=wrap;html=1;align=center;" parent="1" vertex="1">
          <mxGeometry x="-370" y="450" width="100" height="40" as="geometry" />
        </mxCell>
        <mxCell id="5wxTeIpvQStzypfVFlda-77" value="phone" style="ellipse;shape=doubleEllipse;margin=3;whiteSpace=wrap;html=1;align=center;" parent="1" vertex="1">
          <mxGeometry x="-370" y="550" width="100" height="40" as="geometry" />
        </mxCell>
        <mxCell id="5wxTeIpvQStzypfVFlda-78" value="blood_type," style="ellipse;whiteSpace=wrap;html=1;align=center;" parent="1" vertex="1">
          <mxGeometry x="-370" y="500" width="100" height="40" as="geometry" />
        </mxCell>
        <mxCell id="5wxTeIpvQStzypfVFlda-79" value="allergies" style="ellipse;shape=doubleEllipse;margin=3;whiteSpace=wrap;html=1;align=center;" parent="1" vertex="1">
          <mxGeometry x="-370" y="600" width="100" height="40" as="geometry" />
        </mxCell>
        <mxCell id="5wxTeIpvQStzypfVFlda-80" value="" style="endArrow=none;html=1;rounded=0;exitX=1;exitY=0.5;exitDx=0;exitDy=0;entryX=0;entryY=0.5;entryDx=0;entryDy=0;" parent="1" source="5wxTeIpvQStzypfVFlda-72" target="5wxTeIpvQStzypfVFlda-44" edge="1">
          <mxGeometry width="50" height="50" relative="1" as="geometry">
            <mxPoint x="-110" y="590" as="sourcePoint" />
            <mxPoint x="-60" y="540" as="targetPoint" />
          </mxGeometry>
        </mxCell>
        <mxCell id="5wxTeIpvQStzypfVFlda-81" value="" style="endArrow=none;html=1;rounded=0;exitX=1;exitY=0.5;exitDx=0;exitDy=0;entryX=0;entryY=0.5;entryDx=0;entryDy=0;" parent="1" source="5wxTeIpvQStzypfVFlda-73" target="5wxTeIpvQStzypfVFlda-44" edge="1">
          <mxGeometry width="50" height="50" relative="1" as="geometry">
            <mxPoint x="-110" y="590" as="sourcePoint" />
            <mxPoint x="-170" y="390" as="targetPoint" />
          </mxGeometry>
        </mxCell>
        <mxCell id="5wxTeIpvQStzypfVFlda-82" value="" style="endArrow=none;html=1;rounded=0;exitX=1;exitY=0.5;exitDx=0;exitDy=0;entryX=0;entryY=0.5;entryDx=0;entryDy=0;" parent="1" source="5wxTeIpvQStzypfVFlda-74" target="5wxTeIpvQStzypfVFlda-44" edge="1">
          <mxGeometry width="50" height="50" relative="1" as="geometry">
            <mxPoint x="-110" y="590" as="sourcePoint" />
            <mxPoint x="-60" y="540" as="targetPoint" />
          </mxGeometry>
        </mxCell>
        <mxCell id="5wxTeIpvQStzypfVFlda-83" value="" style="endArrow=none;html=1;rounded=0;exitX=1;exitY=0.5;exitDx=0;exitDy=0;entryX=0;entryY=0.5;entryDx=0;entryDy=0;" parent="1" source="5wxTeIpvQStzypfVFlda-75" target="5wxTeIpvQStzypfVFlda-44" edge="1">
          <mxGeometry width="50" height="50" relative="1" as="geometry">
            <mxPoint x="-110" y="590" as="sourcePoint" />
            <mxPoint x="-60" y="540" as="targetPoint" />
          </mxGeometry>
        </mxCell>
        <mxCell id="5wxTeIpvQStzypfVFlda-84" value="" style="endArrow=none;html=1;rounded=0;exitX=1;exitY=0.5;exitDx=0;exitDy=0;entryX=0;entryY=0.5;entryDx=0;entryDy=0;" parent="1" source="5wxTeIpvQStzypfVFlda-78" target="5wxTeIpvQStzypfVFlda-44" edge="1">
          <mxGeometry width="50" height="50" relative="1" as="geometry">
            <mxPoint x="-110" y="590" as="sourcePoint" />
            <mxPoint x="-60" y="540" as="targetPoint" />
          </mxGeometry>
        </mxCell>
        <mxCell id="5wxTeIpvQStzypfVFlda-85" value="" style="endArrow=none;html=1;rounded=0;exitX=1;exitY=0.5;exitDx=0;exitDy=0;entryX=0;entryY=0.5;entryDx=0;entryDy=0;" parent="1" source="5wxTeIpvQStzypfVFlda-77" target="5wxTeIpvQStzypfVFlda-44" edge="1">
          <mxGeometry width="50" height="50" relative="1" as="geometry">
            <mxPoint x="-110" y="590" as="sourcePoint" />
            <mxPoint x="-60" y="540" as="targetPoint" />
          </mxGeometry>
        </mxCell>
        <mxCell id="5wxTeIpvQStzypfVFlda-86" value="" style="endArrow=none;html=1;rounded=0;exitX=1;exitY=0.5;exitDx=0;exitDy=0;entryX=0;entryY=0.5;entryDx=0;entryDy=0;" parent="1" source="5wxTeIpvQStzypfVFlda-79" target="5wxTeIpvQStzypfVFlda-44" edge="1">
          <mxGeometry width="50" height="50" relative="1" as="geometry">
            <mxPoint x="-110" y="590" as="sourcePoint" />
            <mxPoint x="-60" y="540" as="targetPoint" />
          </mxGeometry>
        </mxCell>
        <mxCell id="5wxTeIpvQStzypfVFlda-88" value="Location" style="shape=ext;margin=3;double=1;whiteSpace=wrap;html=1;align=center;" parent="1" vertex="1">
          <mxGeometry x="-190" y="250" width="100" height="40" as="geometry" />
        </mxCell>
        <mxCell id="5wxTeIpvQStzypfVFlda-89" value="bed_number" style="ellipse;whiteSpace=wrap;html=1;align=center;" parent="1" vertex="1">
          <mxGeometry x="-20" y="320" width="100" height="40" as="geometry" />
        </mxCell>
        <mxCell id="5wxTeIpvQStzypfVFlda-90" value="room_number" style="ellipse;whiteSpace=wrap;html=1;align=center;" parent="1" vertex="1">
          <mxGeometry x="-20" y="210" width="100" height="40" as="geometry" />
        </mxCell>
        <mxCell id="5wxTeIpvQStzypfVFlda-91" value="nursing_unit" style="ellipse;whiteSpace=wrap;html=1;align=center;" parent="1" vertex="1">
          <mxGeometry x="-20" y="270" width="100" height="40" as="geometry" />
        </mxCell>
        <mxCell id="5wxTeIpvQStzypfVFlda-92" value="" style="endArrow=none;html=1;rounded=0;entryX=0;entryY=0.5;entryDx=0;entryDy=0;exitX=1;exitY=0.5;exitDx=0;exitDy=0;" parent="1" source="5wxTeIpvQStzypfVFlda-88" target="5wxTeIpvQStzypfVFlda-89" edge="1">
          <mxGeometry width="50" height="50" relative="1" as="geometry">
            <mxPoint x="-100" y="400" as="sourcePoint" />
            <mxPoint x="-50" y="350" as="targetPoint" />
          </mxGeometry>
        </mxCell>
        <mxCell id="5wxTeIpvQStzypfVFlda-93" value="" style="endArrow=none;html=1;rounded=0;entryX=0;entryY=0.5;entryDx=0;entryDy=0;exitX=1;exitY=0.5;exitDx=0;exitDy=0;" parent="1" source="5wxTeIpvQStzypfVFlda-88" target="5wxTeIpvQStzypfVFlda-91" edge="1">
          <mxGeometry width="50" height="50" relative="1" as="geometry">
            <mxPoint x="-100" y="400" as="sourcePoint" />
            <mxPoint x="-50" y="350" as="targetPoint" />
          </mxGeometry>
        </mxCell>
        <mxCell id="5wxTeIpvQStzypfVFlda-94" value="" style="endArrow=none;html=1;rounded=0;entryX=0;entryY=0.5;entryDx=0;entryDy=0;exitX=1;exitY=0.5;exitDx=0;exitDy=0;" parent="1" source="5wxTeIpvQStzypfVFlda-88" target="5wxTeIpvQStzypfVFlda-90" edge="1">
          <mxGeometry width="50" height="50" relative="1" as="geometry">
            <mxPoint x="-100" y="400" as="sourcePoint" />
            <mxPoint x="-50" y="350" as="targetPoint" />
          </mxGeometry>
        </mxCell>
        <mxCell id="5wxTeIpvQStzypfVFlda-95" value="has" style="shape=rhombus;perimeter=rhombusPerimeter;whiteSpace=wrap;html=1;align=center;" parent="1" vertex="1">
          <mxGeometry x="-200" y="350" width="120" height="60" as="geometry" />
        </mxCell>
        <mxCell id="5wxTeIpvQStzypfVFlda-96" value="" style="fontSize=12;html=1;endArrow=ERone;endFill=1;rounded=0;entryX=0.5;entryY=1;entryDx=0;entryDy=0;exitX=0.5;exitY=0;exitDx=0;exitDy=0;" parent="1" source="5wxTeIpvQStzypfVFlda-95" target="5wxTeIpvQStzypfVFlda-88" edge="1">
          <mxGeometry width="100" height="100" relative="1" as="geometry">
            <mxPoint x="-130" y="440" as="sourcePoint" />
            <mxPoint x="-140" y="300" as="targetPoint" />
          </mxGeometry>
        </mxCell>
        <mxCell id="5wxTeIpvQStzypfVFlda-97" value="" style="fontSize=12;html=1;endArrow=ERone;endFill=1;rounded=0;exitX=0.5;exitY=1;exitDx=0;exitDy=0;entryX=0.5;entryY=0;entryDx=0;entryDy=0;" parent="1" source="5wxTeIpvQStzypfVFlda-95" target="5wxTeIpvQStzypfVFlda-44" edge="1">
          <mxGeometry width="100" height="100" relative="1" as="geometry">
            <mxPoint x="-130" y="440" as="sourcePoint" />
            <mxPoint x="-30" y="340" as="targetPoint" />
          </mxGeometry>
        </mxCell>
        <mxCell id="5wxTeIpvQStzypfVFlda-98" value="Medication" style="rounded=1;arcSize=10;whiteSpace=wrap;html=1;align=center;" parent="1" vertex="1">
          <mxGeometry x="450" y="880" width="100" height="40" as="geometry" />
        </mxCell>
        <mxCell id="5wxTeIpvQStzypfVFlda-99" value="code" style="ellipse;whiteSpace=wrap;html=1;align=center;" parent="1" vertex="1">
          <mxGeometry x="320" y="740" width="100" height="40" as="geometry" />
        </mxCell>
        <mxCell id="5wxTeIpvQStzypfVFlda-100" value="name" style="ellipse;whiteSpace=wrap;html=1;align=center;" parent="1" vertex="1">
          <mxGeometry x="290" y="790" width="100" height="40" as="geometry" />
        </mxCell>
        <mxCell id="5wxTeIpvQStzypfVFlda-101" value="quantity_on_hand" style="ellipse;whiteSpace=wrap;html=1;align=center;" parent="1" vertex="1">
          <mxGeometry x="270" y="840" width="120" height="40" as="geometry" />
        </mxCell>
        <mxCell id="5wxTeIpvQStzypfVFlda-102" value="quantity_ordered" style="ellipse;whiteSpace=wrap;html=1;align=center;" parent="1" vertex="1">
          <mxGeometry x="280" y="890" width="100" height="40" as="geometry" />
        </mxCell>
        <mxCell id="5wxTeIpvQStzypfVFlda-103" value="cost" style="ellipse;whiteSpace=wrap;html=1;align=center;" parent="1" vertex="1">
          <mxGeometry x="310" y="940" width="100" height="40" as="geometry" />
        </mxCell>
        <mxCell id="5wxTeIpvQStzypfVFlda-104" value="expire_date" style="ellipse;whiteSpace=wrap;html=1;align=center;" parent="1" vertex="1">
          <mxGeometry x="360" y="990" width="100" height="40" as="geometry" />
        </mxCell>
        <mxCell id="5wxTeIpvQStzypfVFlda-105" value="has" style="shape=rhombus;perimeter=rhombusPerimeter;whiteSpace=wrap;html=1;align=center;" parent="1" vertex="1">
          <mxGeometry x="440" y="740" width="120" height="60" as="geometry" />
        </mxCell>
        <mxCell id="5wxTeIpvQStzypfVFlda-106" value="" style="fontSize=12;html=1;endArrow=ERoneToMany;rounded=0;entryX=0.5;entryY=0;entryDx=0;entryDy=0;exitX=0.5;exitY=1;exitDx=0;exitDy=0;" parent="1" source="5wxTeIpvQStzypfVFlda-105" target="5wxTeIpvQStzypfVFlda-98" edge="1">
          <mxGeometry width="100" height="100" relative="1" as="geometry">
            <mxPoint x="90" y="690" as="sourcePoint" />
            <mxPoint x="190" y="590" as="targetPoint" />
          </mxGeometry>
        </mxCell>
        <mxCell id="5wxTeIpvQStzypfVFlda-107" value="" style="fontSize=12;html=1;endArrow=ERone;endFill=1;rounded=0;entryX=0.75;entryY=1;entryDx=0;entryDy=0;exitX=0.5;exitY=0;exitDx=0;exitDy=0;edgeStyle=orthogonalEdgeStyle;" parent="1" source="5wxTeIpvQStzypfVFlda-105" target="5wxTeIpvQStzypfVFlda-26" edge="1">
          <mxGeometry width="100" height="100" relative="1" as="geometry">
            <mxPoint x="90" y="690" as="sourcePoint" />
            <mxPoint x="190" y="590" as="targetPoint" />
            <Array as="points">
              <mxPoint x="500" y="520" />
              <mxPoint x="455" y="520" />
            </Array>
          </mxGeometry>
        </mxCell>
        <mxCell id="5wxTeIpvQStzypfVFlda-108" value="has" style="shape=rhombus;perimeter=rhombusPerimeter;whiteSpace=wrap;html=1;align=center;" parent="1" vertex="1">
          <mxGeometry x="70" y="1160" width="120" height="60" as="geometry" />
        </mxCell>
        <mxCell id="5wxTeIpvQStzypfVFlda-109" value="" style="edgeStyle=orthogonalEdgeStyle;fontSize=12;html=1;endArrow=ERone;endFill=1;rounded=0;entryX=0.5;entryY=1;entryDx=0;entryDy=0;exitX=0;exitY=0.5;exitDx=0;exitDy=0;" parent="1" source="5wxTeIpvQStzypfVFlda-108" target="5wxTeIpvQStzypfVFlda-44" edge="1">
          <mxGeometry width="100" height="100" relative="1" as="geometry">
            <mxPoint x="90" y="790" as="sourcePoint" />
            <mxPoint x="190" y="690" as="targetPoint" />
            <Array as="points">
              <mxPoint x="-140" y="1190" />
            </Array>
          </mxGeometry>
        </mxCell>
        <mxCell id="5wxTeIpvQStzypfVFlda-110" value="" style="edgeStyle=orthogonalEdgeStyle;fontSize=12;html=1;endArrow=ERone;endFill=1;rounded=0;entryX=0.5;entryY=1;entryDx=0;entryDy=0;exitX=1;exitY=0.5;exitDx=0;exitDy=0;" parent="1" source="5wxTeIpvQStzypfVFlda-108" target="5wxTeIpvQStzypfVFlda-98" edge="1">
          <mxGeometry width="100" height="100" relative="1" as="geometry">
            <mxPoint x="90" y="990" as="sourcePoint" />
            <mxPoint x="190" y="890" as="targetPoint" />
          </mxGeometry>
        </mxCell>
        <mxCell id="5wxTeIpvQStzypfVFlda-111" value="Surgery" style="rounded=1;arcSize=10;whiteSpace=wrap;html=1;align=center;" parent="1" vertex="1">
          <mxGeometry x="20" y="980" width="100" height="40" as="geometry" />
        </mxCell>
        <mxCell id="5wxTeIpvQStzypfVFlda-112" value="name" style="ellipse;whiteSpace=wrap;html=1;align=center;" parent="1" vertex="1">
          <mxGeometry x="-120" y="885" width="100" height="40" as="geometry" />
        </mxCell>
        <mxCell id="5wxTeIpvQStzypfVFlda-113" value="date" style="ellipse;whiteSpace=wrap;html=1;align=center;" parent="1" vertex="1">
          <mxGeometry x="-120" y="945" width="100" height="40" as="geometry" />
        </mxCell>
        <mxCell id="5wxTeIpvQStzypfVFlda-114" value="time" style="ellipse;whiteSpace=wrap;html=1;align=center;" parent="1" vertex="1">
          <mxGeometry x="-120" y="995" width="100" height="40" as="geometry" />
        </mxCell>
        <mxCell id="5wxTeIpvQStzypfVFlda-115" value="category" style="ellipse;whiteSpace=wrap;html=1;align=center;" parent="1" vertex="1">
          <mxGeometry x="-120" y="1045" width="100" height="40" as="geometry" />
        </mxCell>
        <mxCell id="5wxTeIpvQStzypfVFlda-116" value="special_needs" style="ellipse;whiteSpace=wrap;html=1;align=center;" parent="1" vertex="1">
          <mxGeometry x="-110" y="1095" width="100" height="40" as="geometry" />
        </mxCell>
        <mxCell id="UDQciZ5kGo6_ig8FOosU-1" value="" style="endArrow=none;html=1;rounded=0;exitX=1;exitY=0.5;exitDx=0;exitDy=0;entryX=0;entryY=0.5;entryDx=0;entryDy=0;" edge="1" parent="1" source="5wxTeIpvQStzypfVFlda-112" target="5wxTeIpvQStzypfVFlda-111">
          <mxGeometry width="50" height="50" relative="1" as="geometry">
            <mxPoint x="390" y="1060" as="sourcePoint" />
            <mxPoint x="440" y="1010" as="targetPoint" />
          </mxGeometry>
        </mxCell>
        <mxCell id="UDQciZ5kGo6_ig8FOosU-2" value="" style="endArrow=none;html=1;rounded=0;exitX=1;exitY=0.5;exitDx=0;exitDy=0;entryX=0;entryY=0.5;entryDx=0;entryDy=0;" edge="1" parent="1" source="5wxTeIpvQStzypfVFlda-114" target="5wxTeIpvQStzypfVFlda-111">
          <mxGeometry width="50" height="50" relative="1" as="geometry">
            <mxPoint x="390" y="1060" as="sourcePoint" />
            <mxPoint x="440" y="1010" as="targetPoint" />
          </mxGeometry>
        </mxCell>
        <mxCell id="UDQciZ5kGo6_ig8FOosU-3" value="" style="endArrow=none;html=1;rounded=0;exitX=1;exitY=0.5;exitDx=0;exitDy=0;entryX=0;entryY=0.5;entryDx=0;entryDy=0;" edge="1" parent="1" source="5wxTeIpvQStzypfVFlda-113" target="5wxTeIpvQStzypfVFlda-111">
          <mxGeometry width="50" height="50" relative="1" as="geometry">
            <mxPoint x="390" y="1060" as="sourcePoint" />
            <mxPoint x="440" y="1010" as="targetPoint" />
          </mxGeometry>
        </mxCell>
        <mxCell id="UDQciZ5kGo6_ig8FOosU-4" value="" style="endArrow=none;html=1;rounded=0;exitX=1;exitY=0.5;exitDx=0;exitDy=0;entryX=0;entryY=0.5;entryDx=0;entryDy=0;" edge="1" parent="1" source="5wxTeIpvQStzypfVFlda-115" target="5wxTeIpvQStzypfVFlda-111">
          <mxGeometry width="50" height="50" relative="1" as="geometry">
            <mxPoint x="390" y="1060" as="sourcePoint" />
            <mxPoint x="440" y="1010" as="targetPoint" />
          </mxGeometry>
        </mxCell>
        <mxCell id="UDQciZ5kGo6_ig8FOosU-5" value="" style="endArrow=none;html=1;rounded=0;exitX=1;exitY=0.5;exitDx=0;exitDy=0;entryX=0;entryY=0.5;entryDx=0;entryDy=0;" edge="1" parent="1" source="5wxTeIpvQStzypfVFlda-116" target="5wxTeIpvQStzypfVFlda-111">
          <mxGeometry width="50" height="50" relative="1" as="geometry">
            <mxPoint x="390" y="1060" as="sourcePoint" />
            <mxPoint x="440" y="1010" as="targetPoint" />
          </mxGeometry>
        </mxCell>
        <mxCell id="UDQciZ5kGo6_ig8FOosU-6" value="has" style="shape=rhombus;perimeter=rhombusPerimeter;whiteSpace=wrap;html=1;align=center;" vertex="1" parent="1">
          <mxGeometry x="10" y="770" width="120" height="60" as="geometry" />
        </mxCell>
        <mxCell id="UDQciZ5kGo6_ig8FOosU-7" value="" style="fontSize=12;html=1;endArrow=ERoneToMany;rounded=0;exitX=0.5;exitY=1;exitDx=0;exitDy=0;entryX=0.5;entryY=0;entryDx=0;entryDy=0;" edge="1" parent="1" source="UDQciZ5kGo6_ig8FOosU-6" target="5wxTeIpvQStzypfVFlda-111">
          <mxGeometry width="100" height="100" relative="1" as="geometry">
            <mxPoint x="90" y="800" as="sourcePoint" />
            <mxPoint x="190" y="700" as="targetPoint" />
          </mxGeometry>
        </mxCell>
        <mxCell id="UDQciZ5kGo6_ig8FOosU-10" value="" style="endArrow=none;html=1;rounded=0;entryX=0;entryY=0.5;entryDx=0;entryDy=0;exitX=1;exitY=0.5;exitDx=0;exitDy=0;" edge="1" parent="1" source="5wxTeIpvQStzypfVFlda-103" target="5wxTeIpvQStzypfVFlda-98">
          <mxGeometry width="50" height="50" relative="1" as="geometry">
            <mxPoint x="120" y="880" as="sourcePoint" />
            <mxPoint x="170" y="830" as="targetPoint" />
          </mxGeometry>
        </mxCell>
        <mxCell id="UDQciZ5kGo6_ig8FOosU-11" value="" style="endArrow=none;html=1;rounded=0;entryX=0;entryY=0.5;entryDx=0;entryDy=0;exitX=1;exitY=0.5;exitDx=0;exitDy=0;" edge="1" parent="1" source="5wxTeIpvQStzypfVFlda-102" target="5wxTeIpvQStzypfVFlda-98">
          <mxGeometry width="50" height="50" relative="1" as="geometry">
            <mxPoint x="120" y="880" as="sourcePoint" />
            <mxPoint x="170" y="830" as="targetPoint" />
          </mxGeometry>
        </mxCell>
        <mxCell id="UDQciZ5kGo6_ig8FOosU-12" value="" style="endArrow=none;html=1;rounded=0;entryX=0;entryY=0.5;entryDx=0;entryDy=0;exitX=1;exitY=0.5;exitDx=0;exitDy=0;" edge="1" parent="1" source="5wxTeIpvQStzypfVFlda-101" target="5wxTeIpvQStzypfVFlda-98">
          <mxGeometry width="50" height="50" relative="1" as="geometry">
            <mxPoint x="120" y="880" as="sourcePoint" />
            <mxPoint x="170" y="830" as="targetPoint" />
          </mxGeometry>
        </mxCell>
        <mxCell id="UDQciZ5kGo6_ig8FOosU-13" value="" style="endArrow=none;html=1;rounded=0;entryX=0;entryY=0.5;entryDx=0;entryDy=0;exitX=1;exitY=0.5;exitDx=0;exitDy=0;" edge="1" parent="1" source="5wxTeIpvQStzypfVFlda-100" target="5wxTeIpvQStzypfVFlda-98">
          <mxGeometry width="50" height="50" relative="1" as="geometry">
            <mxPoint x="120" y="880" as="sourcePoint" />
            <mxPoint x="170" y="830" as="targetPoint" />
          </mxGeometry>
        </mxCell>
        <mxCell id="UDQciZ5kGo6_ig8FOosU-14" value="" style="endArrow=none;html=1;rounded=0;entryX=0;entryY=0.5;entryDx=0;entryDy=0;exitX=1;exitY=0.5;exitDx=0;exitDy=0;" edge="1" parent="1" source="5wxTeIpvQStzypfVFlda-99" target="5wxTeIpvQStzypfVFlda-98">
          <mxGeometry width="50" height="50" relative="1" as="geometry">
            <mxPoint x="120" y="880" as="sourcePoint" />
            <mxPoint x="170" y="830" as="targetPoint" />
          </mxGeometry>
        </mxCell>
        <mxCell id="UDQciZ5kGo6_ig8FOosU-15" value="" style="endArrow=none;html=1;rounded=0;entryX=0;entryY=0.5;entryDx=0;entryDy=0;exitX=0.5;exitY=0;exitDx=0;exitDy=0;" edge="1" parent="1" source="5wxTeIpvQStzypfVFlda-104" target="5wxTeIpvQStzypfVFlda-98">
          <mxGeometry width="50" height="50" relative="1" as="geometry">
            <mxPoint x="120" y="880" as="sourcePoint" />
            <mxPoint x="170" y="830" as="targetPoint" />
          </mxGeometry>
        </mxCell>
        <mxCell id="UDQciZ5kGo6_ig8FOosU-16" value="has" style="shape=rhombus;perimeter=rhombusPerimeter;whiteSpace=wrap;html=1;align=center;" vertex="1" parent="1">
          <mxGeometry x="120" y="600" width="120" height="60" as="geometry" />
        </mxCell>
        <mxCell id="UDQciZ5kGo6_ig8FOosU-19" value="" style="edgeStyle=orthogonalEdgeStyle;fontSize=12;html=1;endArrow=ERmany;rounded=0;exitX=0.5;exitY=1;exitDx=0;exitDy=0;entryX=0.75;entryY=0;entryDx=0;entryDy=0;" edge="1" parent="1" source="UDQciZ5kGo6_ig8FOosU-16" target="5wxTeIpvQStzypfVFlda-111">
          <mxGeometry width="100" height="100" relative="1" as="geometry">
            <mxPoint x="90" y="900" as="sourcePoint" />
            <mxPoint x="190" y="800" as="targetPoint" />
            <Array as="points">
              <mxPoint x="180" y="880" />
              <mxPoint x="95" y="880" />
            </Array>
          </mxGeometry>
        </mxCell>
        <mxCell id="UDQciZ5kGo6_ig8FOosU-20" value="" style="edgeStyle=orthogonalEdgeStyle;fontSize=12;html=1;endArrow=ERmandOne;rounded=0;entryX=0.25;entryY=1;entryDx=0;entryDy=0;exitX=0.5;exitY=0;exitDx=0;exitDy=0;" edge="1" parent="1" source="UDQciZ5kGo6_ig8FOosU-16" target="5wxTeIpvQStzypfVFlda-26">
          <mxGeometry width="100" height="100" relative="1" as="geometry">
            <mxPoint x="90" y="700" as="sourcePoint" />
            <mxPoint x="190" y="600" as="targetPoint" />
          </mxGeometry>
        </mxCell>
        <mxCell id="UDQciZ5kGo6_ig8FOosU-21" value="" style="edgeStyle=orthogonalEdgeStyle;fontSize=12;html=1;endArrow=ERmandOne;rounded=0;entryX=0.75;entryY=1;entryDx=0;entryDy=0;exitX=0.5;exitY=0;exitDx=0;exitDy=0;" edge="1" parent="1" source="UDQciZ5kGo6_ig8FOosU-6" target="5wxTeIpvQStzypfVFlda-44">
          <mxGeometry width="100" height="100" relative="1" as="geometry">
            <mxPoint x="90" y="800" as="sourcePoint" />
            <mxPoint x="190" y="700" as="targetPoint" />
          </mxGeometry>
        </mxCell>
        <mxCell id="UDQciZ5kGo6_ig8FOosU-22" value="Theatre" style="rounded=1;arcSize=10;whiteSpace=wrap;html=1;align=center;" vertex="1" parent="1">
          <mxGeometry x="350" y="1085" width="100" height="40" as="geometry" />
        </mxCell>
        <mxCell id="UDQciZ5kGo6_ig8FOosU-23" value="has" style="shape=rhombus;perimeter=rhombusPerimeter;whiteSpace=wrap;html=1;align=center;" vertex="1" parent="1">
          <mxGeometry x="140" y="1075" width="120" height="60" as="geometry" />
        </mxCell>
        <mxCell id="UDQciZ5kGo6_ig8FOosU-24" value="" style="edgeStyle=entityRelationEdgeStyle;fontSize=12;html=1;endArrow=ERmandOne;rounded=0;entryX=0;entryY=0.5;entryDx=0;entryDy=0;exitX=1;exitY=0.5;exitDx=0;exitDy=0;" edge="1" parent="1" source="UDQciZ5kGo6_ig8FOosU-23" target="UDQciZ5kGo6_ig8FOosU-22">
          <mxGeometry width="100" height="100" relative="1" as="geometry">
            <mxPoint x="90" y="1110" as="sourcePoint" />
            <mxPoint x="190" y="1010" as="targetPoint" />
          </mxGeometry>
        </mxCell>
        <mxCell id="UDQciZ5kGo6_ig8FOosU-26" value="" style="edgeStyle=orthogonalEdgeStyle;fontSize=12;html=1;endArrow=ERoneToMany;rounded=0;entryX=0.5;entryY=1;entryDx=0;entryDy=0;exitX=0;exitY=0.5;exitDx=0;exitDy=0;" edge="1" parent="1" source="UDQciZ5kGo6_ig8FOosU-23" target="5wxTeIpvQStzypfVFlda-111">
          <mxGeometry width="100" height="100" relative="1" as="geometry">
            <mxPoint x="90" y="1110" as="sourcePoint" />
            <mxPoint x="190" y="1010" as="targetPoint" />
          </mxGeometry>
        </mxCell>
      </root>
    </mxGraphModel>
  </diagram>
</mxfile>
